<?xml version="1.0" encoding="UTF-8"?><svg xmlns="http://www.w3.org/2000/svg" xmlns:xlink="http://www.w3.org/1999/xlink" height="322.0" preserveAspectRatio="xMidYMid meet" version="1.0" viewBox="83.7 57.8 269.8 322.0" width="269.8" zoomAndPan="magnify"><g><g id="change1_1"><path d="M 303.054688 298.183594 C 303.054688 298.183594 280.980469 267.054688 249.53125 273.261719 C 218.085938 279.464844 181.324219 213.871094 159.199219 184.65625 C 137.070312 155.4375 102.03125 157.636719 93.042969 163.445312 C 93.042969 163.445312 125.335938 168.054688 158.78125 240.90625 C 184.074219 295.992188 229.175781 346.011719 267.039062 349.277344 C 304.898438 352.535156 314.355469 327.863281 303.054688 298.183594" fill="#59a224"/></g><g id="change2_1"><path d="M 249.710938 292.730469 C 249.710938 292.730469 224.355469 264.210938 237.484375 234.96875 C 250.609375 205.730469 185.796875 148.617188 171.507812 126.992188 C 157.222656 105.378906 158.066406 65.210938 165.753906 57.761719 C 165.753906 57.761719 162.96875 90.265625 226.40625 139.261719 C 274.382812 176.316406 312.949219 231.527344 307.601562 269.15625 C 302.253906 306.78125 276.078125 310.429688 249.710938 292.730469" fill="#6ec72d"/></g><g id="change3_1"><path d="M 250.535156 328.039062 C 254.035156 330 263.679688 335.410156 270.949219 338.953125 C 317.902344 361.21875 335.820312 346.972656 324.703125 296.214844 C 322.894531 288.324219 319.796875 277.71875 318.671875 273.859375 C 299.050781 211.496094 261.066406 163.734375 204.734375 130.5625 C 201.230469 128.605469 191.589844 123.191406 184.320312 119.652344 C 137.367188 97.386719 119.449219 111.636719 130.566406 162.394531 C 132.371094 170.273438 135.480469 180.886719 136.597656 184.742188 C 156.21875 247.101562 194.199219 294.871094 250.535156 328.039062" fill="#fabb18"/></g><g id="change4_1"><path d="M 322.972656 302.574219 C 323.988281 304.527344 324.617188 303.617188 324.179688 300.265625 C 323.773438 297.050781 323.230469 293.644531 322.542969 290.066406 C 321.820312 286.359375 320.570312 281.695312 319.953125 279.9375 C 319.335938 278.226562 318.699219 276.519531 318.054688 274.828125 C 317.40625 273.085938 317.269531 274.703125 317.585938 278.191406 C 317.90625 281.574219 318.109375 284.808594 318.179688 287.878906 C 318.246094 291.058594 319 295.011719 320.039062 296.953125 C 321.023438 298.820312 322 300.691406 322.972656 302.574219" fill="#f7dc19"/></g><g id="change4_2"><path d="M 321.214844 322.789062 C 322.558594 324.816406 324.089844 324.765625 324.429688 322.394531 C 324.769531 320.105469 324.972656 317.644531 325.03125 315.011719 C 325.085938 312.277344 324.121094 308.246094 323.078125 306.285156 C 322.050781 304.386719 321.019531 302.488281 319.976562 300.601562 C 318.910156 298.648438 317.894531 299.394531 317.523438 302.03125 C 317.1875 304.585938 316.730469 306.980469 316.148438 309.226562 C 315.53125 311.550781 315.984375 314.882812 317.34375 316.914062 C 318.636719 318.863281 319.929688 320.824219 321.214844 322.789062" fill="#f7dc19"/></g><g id="change4_3"><path d="M 313.660156 335.707031 C 315.21875 337.679688 317.566406 338.371094 318.679688 336.972656 C 319.765625 335.628906 320.714844 334.105469 321.527344 332.414062 C 322.355469 330.65625 321.761719 327.367188 320.398438 325.335938 C 319.070312 323.375 317.738281 321.414062 316.40625 319.457031 C 315.03125 317.429688 313.222656 317.425781 312.175781 319.207031 C 311.175781 320.929688 310.058594 322.496094 308.816406 323.90625 C 307.523438 325.378906 307.589844 327.984375 309.152344 329.96875 C 310.652344 331.875 312.160156 333.792969 313.660156 335.707031" fill="#f7dc19"/></g><g id="change4_4"><path d="M 300.300781 341.316406 C 301.972656 343.105469 305.035156 344.429688 306.9375 344.015625 C 308.769531 343.605469 310.46875 343.019531 312.023438 342.269531 C 313.636719 341.492188 313.484375 339.058594 311.917969 337.089844 C 310.394531 335.195312 308.863281 333.296875 307.339844 331.40625 C 305.765625 329.4375 303.242188 328.78125 301.519531 329.710938 C 299.863281 330.605469 298.082031 331.339844 296.179688 331.925781 C 294.203125 332.539062 293.800781 334.3125 295.472656 336.105469 C 297.074219 337.847656 298.6875 339.585938 300.300781 341.316406" fill="#f7dc19"/></g><g id="change4_5"><path d="M 281.140625 339.636719 C 282.808594 341.09375 286.519531 342.945312 289.191406 343.507812 C 291.773438 344.042969 294.21875 344.398438 296.523438 344.582031 C 298.910156 344.785156 299.304688 343.304688 297.628906 341.539062 C 296.007812 339.847656 294.390625 338.144531 292.777344 336.445312 C 291.105469 334.667969 287.960938 333.476562 285.558594 333.546875 C 283.242188 333.609375 280.804688 333.519531 278.242188 333.273438 C 275.589844 333.03125 274.628906 333.855469 276.296875 335.339844 C 277.898438 336.773438 279.511719 338.207031 281.140625 339.636719" fill="#f7dc19"/></g><g id="change4_6"><path d="M 256.164062 330.65625 C 257.738281 331.652344 262.003906 333.917969 265.449219 335.464844 C 268.78125 336.9375 271.976562 338.234375 275.023438 339.355469 C 278.1875 340.539062 279.214844 340.125 277.542969 338.691406 C 275.933594 337.328125 274.324219 335.957031 272.730469 334.574219 C 271.066406 333.125 267.382812 331.5 264.300781 330.722656 C 261.324219 329.953125 258.226562 329.027344 255.003906 327.957031 C 251.675781 326.863281 250.066406 326.632812 251.617188 327.652344 C 253.121094 328.664062 254.640625 329.667969 256.164062 330.65625" fill="#f7dc19"/></g><g id="change4_7"><path d="M 315.179688 287.929688 C 316.242188 289.84375 317.210938 289.019531 317.164062 285.855469 C 317.144531 282.808594 316.992188 279.609375 316.730469 276.261719 C 316.4375 272.777344 315.511719 268.378906 314.824219 266.671875 C 314.144531 265.011719 313.445312 263.359375 312.738281 261.714844 C 312.023438 260.023438 311.476562 261.453125 311.375 264.699219 C 311.300781 267.84375 311.117188 270.859375 310.832031 273.734375 C 310.519531 276.714844 311.03125 280.507812 312.117188 282.410156 C 313.144531 284.238281 314.167969 286.078125 315.179688 287.929688" fill="#f7dc19"/></g><g id="change4_8"><path d="M 311.007812 307.433594 C 312.375 309.445312 314.140625 309.386719 314.769531 307.066406 C 315.390625 304.828125 315.890625 302.441406 316.269531 299.90625 C 316.644531 297.269531 315.933594 293.378906 314.851562 291.457031 C 313.78125 289.589844 312.703125 287.726562 311.621094 285.863281 C 310.519531 283.949219 309.1875 284.605469 308.515625 287.128906 C 307.878906 289.5625 307.144531 291.871094 306.296875 294.054688 C 305.414062 296.3125 305.6875 299.601562 307.066406 301.613281 C 308.382812 303.546875 309.695312 305.488281 311.007812 307.433594" fill="#f7dc19"/></g><g id="change4_9"><path d="M 301.847656 320.660156 C 303.402344 322.632812 305.882812 323.226562 307.183594 321.753906 C 308.449219 320.332031 309.601562 318.761719 310.621094 317.027344 C 311.675781 315.246094 311.265625 311.976562 309.882812 309.96875 C 308.535156 308.019531 307.183594 306.070312 305.828125 304.132812 C 304.4375 302.117188 302.410156 302.109375 301.164062 303.90625 C 299.972656 305.644531 298.675781 307.253906 297.269531 308.726562 C 295.8125 310.257812 295.769531 312.941406 297.332031 314.921875 C 298.835938 316.835938 300.339844 318.746094 301.847656 320.660156" fill="#f7dc19"/></g><g id="change4_10"><path d="M 287.6875 327.605469 C 289.34375 329.40625 292.4375 330.546875 294.410156 329.917969 C 296.324219 329.3125 298.117188 328.546875 299.789062 327.632812 C 301.511719 326.695312 301.488281 324.152344 299.925781 322.1875 C 298.398438 320.296875 296.871094 318.394531 295.347656 316.496094 C 293.777344 314.53125 291.144531 313.964844 289.328125 315.042969 C 287.574219 316.078125 285.71875 316.980469 283.753906 317.753906 C 281.722656 318.5625 281.277344 320.53125 282.914062 322.34375 C 284.503906 324.105469 286.097656 325.855469 287.6875 327.605469" fill="#f7dc19"/></g><g id="change4_11"><path d="M 268.539062 328.277344 C 270.171875 329.769531 273.800781 331.347656 276.453125 331.5625 C 279.011719 331.765625 281.445312 331.816406 283.765625 331.71875 C 286.171875 331.628906 286.621094 329.921875 284.96875 328.136719 C 283.371094 326.421875 281.773438 324.703125 280.191406 322.988281 C 278.539062 321.1875 275.398438 320.183594 272.996094 320.53125 C 270.683594 320.859375 268.269531 321.0625 265.746094 321.132812 C 263.140625 321.222656 262.203125 322.367188 263.816406 323.878906 C 265.386719 325.355469 266.960938 326.820312 268.539062 328.277344" fill="#f7dc19"/></g><g id="change4_12"><path d="M 244.398438 322.671875 C 245.902344 323.726562 249.984375 325.621094 253.3125 326.6875 C 256.515625 327.699219 259.601562 328.5625 262.5625 329.273438 C 265.636719 330.027344 266.648438 329.273438 265.023438 327.804688 C 263.453125 326.402344 261.890625 324.992188 260.34375 323.578125 C 258.730469 322.09375 255.148438 320.738281 252.179688 320.371094 C 249.308594 320 246.332031 319.496094 243.253906 318.863281 C 240.070312 318.230469 238.554688 318.441406 240.039062 319.519531 C 241.480469 320.582031 242.9375 321.632812 244.398438 322.671875" fill="#f7dc19"/></g><g id="change4_13"><path d="M 307.039062 273.558594 C 308.144531 275.4375 309.425781 274.726562 309.761719 271.761719 C 310.09375 268.90625 310.328125 265.925781 310.460938 262.816406 C 310.574219 259.589844 309.949219 255.453125 309.199219 253.808594 C 308.453125 252.195312 307.691406 250.59375 306.925781 249 C 306.140625 247.363281 305.195312 248.59375 304.710938 251.566406 C 304.25 254.453125 303.710938 257.238281 303.085938 259.90625 C 302.421875 262.671875 302.710938 266.285156 303.839844 268.148438 C 304.910156 269.945312 305.980469 271.753906 307.039062 273.558594" fill="#f7dc19"/></g><g id="change4_14"><path d="M 300.617188 292.222656 C 302.007812 294.214844 303.980469 294.171875 304.882812 291.921875 C 305.761719 289.753906 306.539062 287.453125 307.210938 285.03125 C 307.902344 282.519531 307.429688 278.777344 306.289062 276.890625 C 305.183594 275.050781 304.066406 273.222656 302.941406 271.398438 C 301.789062 269.515625 300.175781 270.0625 299.210938 272.445312 C 298.300781 274.757812 297.300781 276.964844 296.21875 279.0625 C 295.082031 281.230469 295.203125 284.464844 296.605469 286.460938 C 297.949219 288.382812 299.277344 290.292969 300.617188 292.222656" fill="#f7dc19"/></g><g id="change4_15"><path d="M 290.019531 305.628906 C 291.578125 307.601562 294.160156 308.117188 295.632812 306.578125 C 297.054688 305.097656 298.375 303.484375 299.597656 301.75 C 300.855469 299.953125 300.613281 296.710938 299.207031 294.710938 C 297.839844 292.777344 296.46875 290.851562 295.097656 288.929688 C 293.679688 286.933594 291.46875 286.90625 290.039062 288.703125 C 288.667969 290.4375 287.214844 292.066406 285.671875 293.585938 C 284.066406 295.164062 283.9375 297.921875 285.496094 299.894531 C 287.007812 301.804688 288.507812 303.71875 290.019531 305.628906" fill="#f7dc19"/></g><g id="change4_16"><path d="M 275.234375 313.769531 C 276.863281 315.59375 279.96875 316.5625 282.003906 315.734375 C 283.972656 314.9375 285.839844 314.015625 287.605469 312.960938 C 289.429688 311.878906 289.511719 309.242188 287.941406 307.277344 C 286.421875 305.382812 284.894531 303.484375 283.371094 301.589844 C 281.800781 299.613281 279.089844 299.121094 277.1875 300.328125 C 275.363281 301.488281 273.445312 302.539062 271.445312 303.484375 C 269.371094 304.476562 268.898438 306.632812 270.523438 308.464844 C 272.09375 310.230469 273.660156 312.007812 275.234375 313.769531" fill="#f7dc19"/></g><g id="change4_17"><path d="M 256.273438 316.660156 C 257.859375 318.191406 261.398438 319.496094 264 319.390625 C 266.515625 319.277344 268.925781 319.039062 271.234375 318.671875 C 273.632812 318.304688 274.117188 316.390625 272.492188 314.585938 C 270.914062 312.851562 269.351562 311.117188 267.78125 309.378906 C 266.152344 307.5625 263.027344 306.722656 260.65625 307.332031 C 258.371094 307.914062 256.003906 308.386719 253.542969 308.761719 C 251.003906 309.160156 250.105469 310.609375 251.679688 312.160156 C 253.203125 313.664062 254.730469 315.160156 256.273438 316.660156" fill="#f7dc19"/></g><g id="change4_18"><path d="M 233.132812 314.289062 C 234.570312 315.394531 238.453125 316.941406 241.628906 317.550781 C 244.6875 318.121094 247.644531 318.5625 250.492188 318.886719 C 253.460938 319.230469 254.445312 318.140625 252.863281 316.640625 C 251.34375 315.195312 249.824219 313.753906 248.3125 312.296875 C 246.746094 310.777344 243.296875 309.6875 240.449219 309.710938 C 237.710938 309.71875 234.882812 309.617188 231.964844 309.410156 C 228.953125 309.222656 227.542969 309.855469 228.964844 310.984375 C 230.339844 312.105469 231.730469 313.203125 233.132812 314.289062" fill="#f7dc19"/></g><g id="change4_19"><path d="M 298.539062 259.476562 C 299.695312 261.316406 301.277344 260.722656 301.960938 257.976562 C 302.632812 255.335938 303.21875 252.589844 303.726562 249.738281 C 304.234375 246.773438 303.894531 242.9375 303.078125 241.335938 C 302.265625 239.773438 301.441406 238.222656 300.605469 236.683594 C 299.761719 235.097656 298.4375 236.109375 297.578125 238.804688 C 296.769531 241.417969 295.890625 243.945312 294.945312 246.394531 C 293.953125 248.925781 294.027344 252.347656 295.203125 254.179688 C 296.320312 255.9375 297.4375 257.703125 298.539062 259.476562" fill="#f7dc19"/></g><g id="change4_20"><path d="M 290.042969 277.160156 C 291.453125 279.136719 293.628906 279.113281 294.773438 276.953125 C 295.890625 274.867188 296.921875 272.683594 297.871094 270.390625 C 298.847656 268.011719 298.585938 264.4375 297.410156 262.578125 C 296.261719 260.777344 295.101562 258.980469 293.9375 257.1875 C 292.734375 255.34375 290.847656 255.769531 289.621094 257.996094 C 288.453125 260.164062 287.214844 262.246094 285.914062 264.246094 C 284.558594 266.3125 284.53125 269.476562 285.960938 271.449219 C 287.320312 273.351562 288.683594 275.25 290.042969 277.160156" fill="#f7dc19"/></g><g id="change4_21"><path d="M 278.175781 290.605469 C 279.738281 292.574219 282.414062 293.023438 284.027344 291.445312 C 285.582031 289.921875 287.0625 288.289062 288.453125 286.558594 C 289.894531 284.761719 289.800781 281.5625 288.371094 279.585938 C 286.984375 277.671875 285.597656 275.761719 284.199219 273.851562 C 282.765625 271.871094 280.390625 271.8125 278.800781 273.589844 C 277.269531 275.308594 275.683594 276.9375 274.019531 278.488281 C 272.300781 280.097656 272.089844 282.898438 273.65625 284.875 C 275.160156 286.78125 276.671875 288.699219 278.175781 290.605469" fill="#f7dc19"/></g><g id="change4_22"><path d="M 262.9375 299.808594 C 264.546875 301.644531 267.640625 302.453125 269.714844 301.453125 C 271.71875 300.488281 273.636719 299.417969 275.476562 298.246094 C 277.378906 297.03125 277.535156 294.320312 275.972656 292.355469 C 274.453125 290.460938 272.929688 288.558594 271.410156 286.660156 C 269.839844 284.691406 267.0625 284.261719 265.105469 285.574219 C 263.226562 286.84375 261.269531 288.027344 259.25 289.128906 C 257.171875 290.277344 256.6875 292.605469 258.296875 294.453125 C 259.839844 296.242188 261.390625 298.027344 262.9375 299.808594" fill="#f7dc19"/></g><g id="change4_23"><path d="M 244.335938 304.78125 C 245.882812 306.347656 249.304688 307.402344 251.839844 306.992188 C 254.28125 306.578125 256.648438 306.066406 258.933594 305.453125 C 261.300781 304.820312 261.804688 302.710938 260.199219 300.890625 C 258.644531 299.136719 257.101562 297.382812 255.558594 295.621094 C 253.953125 293.789062 250.867188 293.097656 248.546875 293.957031 C 246.308594 294.773438 244.003906 295.511719 241.628906 296.160156 C 239.175781 296.851562 238.339844 298.597656 239.867188 300.179688 C 241.347656 301.722656 242.839844 303.253906 244.335938 304.78125" fill="#f7dc19"/></g><g id="change4_24"><path d="M 222.359375 305.515625 C 223.734375 306.679688 227.398438 307.871094 230.398438 308.039062 C 233.296875 308.191406 236.101562 308.230469 238.828125 308.171875 C 241.65625 308.128906 242.59375 306.722656 241.054688 305.183594 C 239.578125 303.710938 238.109375 302.226562 236.644531 300.738281 C 235.128906 299.183594 231.8125 298.335938 229.121094 298.730469 C 226.527344 299.101562 223.863281 299.386719 221.136719 299.59375 C 218.316406 299.820312 217.03125 300.875 218.382812 302.0625 C 219.695312 303.21875 221.019531 304.371094 222.359375 305.515625" fill="#f7dc19"/></g><g id="change4_25"><path d="M 289.6875 245.675781 C 290.886719 247.480469 292.746094 247.019531 293.757812 244.503906 C 294.75 242.097656 295.675781 239.605469 296.535156 237.027344 C 297.414062 234.347656 297.339844 230.808594 296.449219 229.265625 C 295.574219 227.746094 294.6875 226.246094 293.785156 224.757812 C 292.875 223.230469 291.199219 224.015625 289.992188 226.40625 C 288.847656 228.730469 287.648438 230.996094 286.40625 233.195312 C 285.105469 235.472656 284.992188 238.6875 286.214844 240.484375 C 287.378906 242.207031 288.53125 243.9375 289.6875 245.675781" fill="#f7dc19"/></g><g id="change4_26"><path d="M 279.28125 262.242188 C 280.722656 264.199219 283.066406 264.222656 284.4375 262.164062 C 285.769531 260.179688 287.035156 258.113281 288.242188 255.976562 C 289.480469 253.746094 289.417969 250.355469 288.195312 248.535156 C 287.007812 246.761719 285.808594 245 284.597656 243.238281 C 283.355469 241.429688 281.210938 241.71875 279.746094 243.78125 C 278.339844 245.78125 276.886719 247.726562 275.386719 249.609375 C 273.824219 251.558594 273.683594 254.632812 275.128906 256.59375 C 276.519531 258.472656 277.898438 260.351562 279.28125 262.242188" fill="#f7dc19"/></g><g id="change4_27"><path d="M 266.324219 275.59375 C 267.886719 277.566406 270.632812 277.964844 272.363281 276.355469 C 274.039062 274.804688 275.648438 273.171875 277.195312 271.460938 C 278.789062 269.683594 278.835938 266.550781 277.386719 264.589844 C 275.980469 262.6875 274.570312 260.792969 273.152344 258.894531 C 271.691406 256.9375 269.164062 256.835938 267.4375 258.574219 C 265.777344 260.257812 264.066406 261.871094 262.3125 263.433594 C 260.492188 265.054688 260.230469 267.894531 261.796875 269.867188 C 263.304688 271.777344 264.8125 273.683594 266.324219 275.59375" fill="#f7dc19"/></g><g id="change4_28"><path d="M 250.804688 285.726562 C 252.386719 287.578125 255.449219 288.246094 257.539062 287.09375 C 259.558594 285.96875 261.511719 284.769531 263.398438 283.480469 C 265.355469 282.160156 265.589844 279.394531 264.015625 277.425781 C 262.496094 275.523438 260.980469 273.628906 259.464844 271.726562 C 257.890625 269.757812 255.0625 269.371094 253.074219 270.78125 C 251.15625 272.144531 249.199219 273.4375 247.1875 274.679688 C 245.101562 275.96875 244.632812 278.453125 246.214844 280.316406 C 247.738281 282.125 249.269531 283.925781 250.804688 285.726562" fill="#f7dc19"/></g><g id="change4_29"><path d="M 232.726562 292.640625 C 234.226562 294.238281 237.519531 295.0625 239.964844 294.359375 C 242.324219 293.671875 244.613281 292.898438 246.855469 292.050781 C 249.164062 291.179688 249.675781 288.886719 248.089844 287.046875 C 246.5625 285.273438 245.039062 283.503906 243.519531 281.722656 C 241.9375 279.871094 238.902344 279.316406 236.660156 280.40625 C 234.488281 281.441406 232.265625 282.414062 230 283.335938 C 227.65625 284.300781 226.894531 286.324219 228.382812 287.9375 C 229.824219 289.515625 231.269531 291.078125 232.726562 292.640625" fill="#f7dc19"/></g><g id="change4_30"><path d="M 212.089844 296.339844 C 213.394531 297.554688 216.828125 298.425781 219.636719 298.171875 C 222.339844 297.910156 224.976562 297.574219 227.550781 297.148438 C 230.226562 296.734375 231.097656 295.023438 229.605469 293.445312 C 228.175781 291.9375 226.746094 290.414062 225.332031 288.894531 C 223.855469 287.300781 220.695312 286.6875 218.1875 287.4375 C 215.761719 288.15625 213.28125 288.8125 210.761719 289.402344 C 208.15625 290.039062 207.019531 291.496094 208.304688 292.730469 C 209.550781 293.941406 210.8125 295.144531 212.089844 296.339844" fill="#f7dc19"/></g><g id="change4_31"><path d="M 280.476562 232.15625 C 281.726562 233.925781 283.847656 233.609375 285.164062 231.355469 C 286.449219 229.1875 287.6875 226.957031 288.882812 224.675781 C 290.105469 222.300781 290.28125 219.078125 289.324219 217.585938 C 288.386719 216.121094 287.4375 214.675781 286.476562 213.234375 C 285.496094 211.757812 283.480469 212.296875 281.949219 214.367188 C 280.484375 216.386719 278.992188 218.363281 277.472656 220.3125 C 275.890625 222.316406 275.605469 225.316406 276.867188 227.070312 C 278.078125 228.761719 279.285156 230.453125 280.476562 232.15625" fill="#f7dc19"/></g><g id="change4_32"><path d="M 268.339844 247.472656 C 269.796875 249.410156 272.308594 249.488281 273.878906 247.550781 C 275.402344 245.6875 276.886719 243.765625 278.324219 241.785156 C 279.800781 239.730469 279.921875 236.53125 278.660156 234.742188 C 277.429688 233.011719 276.183594 231.277344 274.933594 229.554688 C 273.644531 227.78125 271.265625 227.914062 269.578125 229.792969 C 267.960938 231.613281 266.3125 233.398438 264.636719 235.148438 C 262.894531 236.960938 262.644531 239.941406 264.109375 241.878906 C 265.527344 243.738281 266.933594 245.601562 268.339844 247.472656" fill="#f7dc19"/></g><g id="change4_33"><path d="M 254.453125 260.589844 C 256.019531 262.5625 258.824219 262.921875 260.652344 261.308594 C 262.421875 259.742188 264.140625 258.125 265.816406 256.453125 C 267.550781 254.71875 267.710938 251.65625 266.234375 249.710938 C 264.8125 247.828125 263.382812 245.949219 261.945312 244.070312 C 260.464844 242.132812 257.804688 241.96875 255.960938 243.644531 C 254.1875 245.273438 252.386719 246.867188 250.554688 248.421875 C 248.65625 250.035156 248.351562 252.894531 249.925781 254.875 C 251.433594 256.773438 252.941406 258.6875 254.453125 260.589844" fill="#f7dc19"/></g><g id="change4_34"><path d="M 238.820312 271.511719 C 240.386719 273.382812 243.398438 273.917969 245.484375 272.621094 C 247.492188 271.363281 249.457031 270.050781 251.382812 268.683594 C 253.359375 267.265625 253.644531 264.449219 252.074219 262.480469 C 250.5625 260.578125 249.042969 258.679688 247.523438 256.777344 C 245.953125 254.804688 243.097656 254.453125 241.097656 255.9375 C 239.171875 257.378906 237.214844 258.769531 235.226562 260.132812 C 233.175781 261.546875 232.734375 264.179688 234.296875 266.0625 C 235.800781 267.882812 237.308594 269.699219 238.820312 271.511719" fill="#f7dc19"/></g><g id="change4_35"><path d="M 221.441406 280.234375 C 222.894531 281.871094 226.039062 282.476562 228.378906 281.496094 C 230.628906 280.539062 232.832031 279.535156 234.988281 278.46875 C 237.234375 277.378906 237.726562 274.910156 236.164062 273.054688 C 234.664062 271.265625 233.164062 269.476562 231.664062 267.675781 C 230.113281 265.808594 227.148438 265.378906 224.996094 266.671875 C 222.914062 267.90625 220.804688 269.113281 218.664062 270.277344 C 216.449219 271.492188 215.785156 273.785156 217.230469 275.441406 C 218.621094 277.042969 220.027344 278.644531 221.441406 280.234375" fill="#f7dc19"/></g><g id="change4_36"><path d="M 202.316406 286.769531 C 203.558594 288.03125 206.734375 288.585938 209.328125 287.9375 C 211.824219 287.28125 214.269531 286.578125 216.671875 285.816406 C 219.171875 285.042969 219.949219 283.042969 218.515625 281.429688 C 217.121094 279.882812 215.742188 278.328125 214.371094 276.765625 C 212.941406 275.140625 209.960938 274.738281 207.648438 275.835938 C 205.410156 276.878906 203.144531 277.886719 200.847656 278.855469 C 198.480469 279.875 197.503906 281.722656 198.722656 283.011719 C 199.910156 284.273438 201.105469 285.523438 202.316406 286.769531" fill="#f7dc19"/></g><g id="change4_37"><path d="M 270.910156 218.921875 C 272.203125 220.65625 274.574219 220.5 276.175781 218.515625 C 277.734375 216.605469 279.265625 214.667969 280.769531 212.695312 C 282.316406 210.636719 282.722656 207.746094 281.699219 206.304688 C 280.699219 204.894531 279.6875 203.492188 278.664062 202.105469 C 277.613281 200.683594 275.277344 200.964844 273.445312 202.699219 C 271.6875 204.394531 269.925781 206.070312 268.144531 207.742188 C 266.296875 209.460938 265.855469 212.226562 267.171875 213.945312 C 268.425781 215.601562 269.671875 217.257812 270.910156 218.921875" fill="#f7dc19"/></g><g id="change4_38"><path d="M 257.210938 232.851562 C 258.6875 234.769531 261.339844 234.914062 263.101562 233.117188 C 264.792969 231.386719 266.46875 229.625 268.113281 227.828125 C 269.8125 225.960938 270.097656 222.972656 268.789062 221.222656 C 267.511719 219.515625 266.226562 217.820312 264.9375 216.128906 C 263.605469 214.390625 261.007812 214.355469 259.117188 216.027344 C 257.308594 217.65625 255.488281 219.269531 253.660156 220.867188 C 251.757812 222.519531 251.425781 225.394531 252.910156 227.3125 C 254.351562 229.152344 255.777344 230.996094 257.210938 232.851562" fill="#f7dc19"/></g><g id="change4_39"><path d="M 242.570312 245.601562 C 244.140625 247.570312 246.980469 247.902344 248.886719 246.300781 C 250.726562 244.746094 252.535156 243.15625 254.324219 241.542969 C 256.175781 239.859375 256.433594 236.894531 254.9375 234.960938 C 253.488281 233.09375 252.039062 231.230469 250.582031 229.363281 C 249.078125 227.445312 246.300781 227.203125 244.367188 228.816406 C 242.5 230.371094 240.628906 231.921875 238.746094 233.453125 C 236.796875 235.039062 236.46875 237.910156 238.03125 239.886719 C 239.546875 241.789062 241.0625 243.695312 242.570312 245.601562" fill="#f7dc19"/></g><g id="change4_40"><path d="M 226.996094 257.179688 C 228.539062 259.066406 231.496094 259.480469 233.546875 258.066406 C 235.527344 256.6875 237.480469 255.277344 239.40625 253.835938 C 241.402344 252.34375 241.71875 249.492188 240.152344 247.523438 C 238.636719 245.625 237.117188 243.722656 235.605469 241.816406 C 234.039062 239.847656 231.160156 239.511719 229.179688 241.0625 C 227.261719 242.550781 225.328125 244.027344 223.390625 245.492188 C 221.390625 247.015625 220.996094 249.777344 222.527344 251.671875 C 224.015625 253.515625 225.503906 255.347656 226.996094 257.179688" fill="#f7dc19"/></g><g id="change4_41"><path d="M 210.492188 267.578125 C 211.898438 269.246094 214.875 269.640625 217.078125 268.410156 C 219.195312 267.210938 221.292969 265.976562 223.363281 264.710938 C 225.507812 263.40625 225.964844 260.789062 224.429688 258.914062 C 222.941406 257.105469 221.472656 255.296875 219.992188 253.480469 C 218.46875 251.597656 215.59375 251.277344 213.558594 252.761719 C 211.585938 254.179688 209.601562 255.59375 207.609375 256.984375 C 205.554688 258.445312 204.996094 260.988281 206.394531 262.675781 C 207.753906 264.316406 209.117188 265.949219 210.492188 267.578125" fill="#f7dc19"/></g><g id="change4_42"><path d="M 193.042969 276.796875 C 194.222656 278.117188 197.128906 278.371094 199.480469 277.332031 C 201.738281 276.308594 203.980469 275.253906 206.1875 274.160156 C 208.484375 273.054688 209.171875 270.777344 207.769531 269.128906 C 206.429688 267.542969 205.089844 265.953125 203.765625 264.359375 C 202.386719 262.691406 199.59375 262.496094 197.503906 263.914062 C 195.480469 265.269531 193.441406 266.609375 191.394531 267.941406 C 189.289062 269.335938 188.488281 271.550781 189.640625 272.894531 C 190.765625 274.203125 191.898438 275.507812 193.042969 276.796875" fill="#f7dc19"/></g><g id="change4_43"><path d="M 260.988281 205.96875 C 262.332031 207.664062 264.929688 207.683594 266.792969 205.988281 C 268.605469 204.363281 270.40625 202.722656 272.203125 201.074219 C 274.054688 199.355469 274.671875 196.8125 273.578125 195.417969 C 272.515625 194.058594 271.441406 192.710938 270.355469 191.375 C 269.238281 190 266.59375 190.015625 264.480469 191.398438 C 262.453125 192.746094 260.433594 194.113281 258.421875 195.488281 C 256.328125 196.898438 255.761719 199.414062 257.109375 201.101562 C 258.414062 202.71875 259.707031 204.335938 260.988281 205.96875" fill="#f7dc19"/></g><g id="change4_44"><path d="M 245.894531 218.375 C 247.402344 220.273438 250.175781 220.503906 252.089844 218.863281 C 253.9375 217.28125 255.78125 215.695312 257.617188 214.101562 C 259.511719 212.4375 259.945312 209.675781 258.59375 207.953125 C 257.269531 206.285156 255.949219 204.621094 254.613281 202.96875 C 253.238281 201.261719 250.441406 201.050781 248.378906 202.503906 C 246.394531 203.914062 244.425781 205.335938 242.460938 206.765625 C 240.421875 208.25 240.011719 210.992188 241.527344 212.890625 C 242.992188 214.714844 244.441406 216.542969 245.894531 218.375" fill="#f7dc19"/></g><g id="change4_45"><path d="M 230.675781 230.621094 C 232.242188 232.59375 235.109375 232.921875 237.066406 231.335938 C 238.953125 229.8125 240.839844 228.273438 242.71875 226.726562 C 244.648438 225.117188 244.992188 222.253906 243.476562 220.339844 C 242.007812 218.484375 240.535156 216.636719 239.0625 214.789062 C 237.539062 212.890625 234.65625 212.558594 232.652344 214.078125 C 230.722656 215.554688 228.796875 217.03125 226.878906 218.523438 C 224.894531 220.070312 224.5625 222.9375 226.136719 224.910156 C 227.644531 226.8125 229.160156 228.714844 230.675781 230.621094" fill="#f7dc19"/></g><g id="change4_46"><path d="M 215.335938 242.714844 C 216.855469 244.621094 219.726562 244.9375 221.730469 243.414062 C 223.652344 241.933594 225.578125 240.445312 227.492188 238.945312 C 229.480469 237.398438 229.808594 234.53125 228.234375 232.5625 C 226.71875 230.65625 225.203125 228.75 223.695312 226.847656 C 222.128906 224.878906 219.257812 224.550781 217.308594 226.136719 C 215.421875 227.667969 213.546875 229.210938 211.675781 230.761719 C 209.738281 232.371094 209.410156 235.253906 210.925781 237.171875 C 212.386719 239.019531 213.855469 240.867188 215.335938 242.714844" fill="#f7dc19"/></g><g id="change4_47"><path d="M 199.863281 254.652344 C 201.234375 256.359375 204.019531 256.558594 206.070312 255.085938 C 208.039062 253.660156 210 252.222656 211.953125 250.773438 C 213.984375 249.28125 214.386719 246.523438 212.871094 244.628906 C 211.414062 242.804688 209.960938 240.972656 208.511719 239.140625 C 207.007812 237.238281 204.242188 237.019531 202.339844 238.671875 C 200.503906 240.257812 198.671875 241.859375 196.847656 243.476562 C 194.972656 245.15625 194.550781 247.933594 195.894531 249.652344 C 197.214844 251.324219 198.53125 252.992188 199.863281 254.652344" fill="#f7dc19"/></g><g id="change4_48"><path d="M 184.269531 266.429688 C 185.382812 267.808594 188.003906 267.777344 190.09375 266.363281 C 192.101562 264.988281 194.105469 263.601562 196.097656 262.203125 C 198.175781 260.765625 198.738281 258.230469 197.386719 256.542969 C 196.089844 254.921875 194.796875 253.300781 193.519531 251.667969 C 192.183594 249.96875 189.601562 249.957031 187.753906 251.679688 C 185.964844 253.328125 184.175781 254.984375 182.402344 256.65625 C 180.578125 258.40625 179.96875 260.980469 181.058594 262.378906 C 182.117188 263.738281 183.1875 265.089844 184.269531 266.429688" fill="#f7dc19"/></g><g id="change4_49"><path d="M 250.714844 193.296875 C 252.101562 194.960938 254.90625 195.171875 257.015625 193.773438 C 259.054688 192.441406 261.109375 191.128906 263.179688 189.824219 C 265.300781 188.460938 266.117188 186.269531 264.964844 184.933594 C 263.835938 183.625 262.691406 182.324219 261.539062 181.035156 C 260.359375 179.722656 257.429688 179.441406 255.058594 180.457031 C 252.777344 181.449219 250.527344 182.480469 248.308594 183.546875 C 245.992188 184.636719 245.300781 186.894531 246.699219 188.539062 C 248.042969 190.113281 249.386719 191.703125 250.714844 193.296875" fill="#f7dc19"/></g><g id="change4_50"><path d="M 234.394531 204.042969 C 235.925781 205.929688 238.8125 206.253906 240.855469 204.785156 C 242.839844 203.378906 244.828125 201.984375 246.828125 200.601562 C 248.902344 199.160156 249.464844 196.636719 248.0625 194.953125 C 246.710938 193.316406 245.34375 191.683594 243.964844 190.058594 C 242.550781 188.394531 239.558594 187.984375 237.347656 189.195312 C 235.214844 190.378906 233.113281 191.597656 231.039062 192.847656 C 228.878906 194.132812 228.421875 196.738281 229.964844 198.617188 C 231.445312 200.421875 232.917969 202.230469 234.394531 204.042969" fill="#f7dc19"/></g><g id="change4_51"><path d="M 218.765625 215.652344 C 220.335938 217.628906 223.207031 217.953125 225.195312 216.417969 C 227.113281 214.933594 229.039062 213.457031 230.984375 212 C 232.992188 210.484375 233.394531 207.730469 231.855469 205.839844 C 230.367188 204 228.878906 202.167969 227.386719 200.339844 C 225.839844 198.453125 222.882812 198.023438 220.828125 199.4375 C 218.839844 200.804688 216.890625 202.203125 214.964844 203.644531 C 212.964844 205.132812 212.648438 207.976562 214.21875 209.945312 C 215.734375 211.851562 217.25 213.753906 218.765625 215.652344" fill="#f7dc19"/></g><g id="change4_52"><path d="M 203.824219 228.132812 C 205.324219 230.054688 208.097656 230.28125 210.023438 228.667969 C 211.882812 227.105469 213.753906 225.558594 215.632812 224.019531 C 217.582031 222.429688 217.902344 219.5625 216.339844 217.585938 C 214.824219 215.679688 213.3125 213.777344 211.796875 211.867188 C 210.230469 209.894531 207.390625 209.558594 205.492188 211.171875 C 203.65625 212.722656 201.847656 214.3125 200.074219 215.9375 C 198.230469 217.621094 197.984375 220.601562 199.472656 222.53125 C 200.917969 224.398438 202.367188 226.269531 203.824219 228.132812" fill="#f7dc19"/></g><g id="change4_53"><path d="M 189.5625 241.46875 C 190.890625 243.210938 193.476562 243.230469 195.351562 241.539062 C 197.144531 239.894531 198.949219 238.273438 200.769531 236.660156 C 202.664062 234.992188 202.992188 232.109375 201.503906 230.199219 C 200.066406 228.351562 198.636719 226.507812 197.214844 224.652344 C 195.730469 222.730469 193.089844 222.589844 191.351562 224.402344 C 189.667969 226.144531 188.003906 227.914062 186.371094 229.726562 C 184.691406 231.609375 184.417969 234.613281 185.722656 236.367188 C 186.996094 238.074219 188.277344 239.777344 189.5625 241.46875" fill="#f7dc19"/></g><g id="change4_54"><path d="M 175.996094 255.671875 C 177.039062 257.097656 179.355469 256.800781 181.160156 255.03125 C 182.902344 253.3125 184.644531 251.609375 186.40625 249.921875 C 188.238281 248.183594 188.664062 245.402344 187.355469 243.671875 C 186.105469 242.019531 184.859375 240.355469 183.621094 238.691406 C 182.335938 236.953125 179.984375 237.121094 178.402344 239.132812 C 176.859375 241.058594 175.351562 243.019531 173.867188 245.015625 C 172.34375 247.097656 171.957031 250.015625 172.976562 251.464844 C 173.972656 252.878906 174.976562 254.273438 175.996094 255.671875" fill="#f7dc19"/></g><g id="change4_55"><path d="M 240.078125 180.90625 C 241.515625 182.535156 244.515625 182.949219 246.839844 181.878906 C 249.09375 180.863281 251.378906 179.882812 253.6875 178.9375 C 256.070312 177.941406 257.066406 176.132812 255.84375 174.847656 C 254.652344 173.585938 253.449219 172.335938 252.230469 171.101562 C 250.984375 169.835938 247.78125 169.257812 245.175781 169.882812 C 242.664062 170.503906 240.207031 171.183594 237.789062 171.921875 C 235.277344 172.667969 234.484375 174.644531 235.933594 176.257812 C 237.324219 177.804688 238.710938 179.351562 240.078125 180.90625" fill="#f7dc19"/></g><g id="change4_56"><path d="M 222.710938 189.859375 C 224.269531 191.726562 227.238281 192.167969 229.398438 190.886719 C 231.488281 189.667969 233.609375 188.480469 235.757812 187.332031 C 237.980469 186.136719 238.65625 183.859375 237.214844 182.210938 C 235.8125 180.605469 234.398438 179.007812 232.984375 177.421875 C 231.523438 175.785156 228.375 175.171875 226.027344 176.128906 C 223.761719 177.058594 221.554688 178.050781 219.390625 179.101562 C 217.140625 180.183594 216.648438 182.632812 218.203125 184.488281 C 219.71875 186.277344 221.214844 188.0625 222.710938 189.859375" fill="#f7dc19"/></g><g id="change4_57"><path d="M 206.84375 200.695312 C 208.414062 202.664062 211.269531 203.019531 213.265625 201.539062 C 215.191406 200.105469 217.148438 198.71875 219.140625 197.371094 C 221.191406 195.960938 221.640625 193.34375 220.085938 191.460938 C 218.570312 189.644531 217.0625 187.828125 215.546875 186.011719 C 213.984375 184.140625 210.960938 183.597656 208.878906 184.886719 C 206.867188 186.132812 204.902344 187.4375 202.984375 188.800781 C 201 190.210938 200.722656 193.019531 202.289062 194.992188 C 203.808594 196.894531 205.324219 198.792969 206.84375 200.695312" fill="#f7dc19"/></g><g id="change4_58"><path d="M 192.472656 213.414062 C 193.949219 215.359375 196.605469 215.515625 198.4375 213.828125 C 200.199219 212.195312 201.996094 210.601562 203.824219 209.046875 C 205.71875 207.433594 206.015625 204.574219 204.449219 202.601562 C 202.9375 200.691406 201.429688 198.785156 199.921875 196.882812 C 198.355469 194.90625 195.554688 194.542969 193.730469 196.160156 C 191.96875 197.722656 190.257812 199.34375 188.589844 201.019531 C 186.859375 202.757812 186.710938 205.824219 188.183594 207.769531 C 189.605469 209.65625 191.035156 211.539062 192.472656 213.414062" fill="#f7dc19"/></g><g id="change4_59"><path d="M 179.597656 228.023438 C 180.878906 229.800781 183.246094 229.652344 184.914062 227.761719 C 186.515625 225.925781 188.148438 224.128906 189.8125 222.367188 C 191.539062 220.550781 191.785156 217.558594 190.3125 215.621094 C 188.90625 213.753906 187.5 211.890625 186.097656 210.019531 C 184.644531 208.078125 182.144531 208.007812 180.582031 209.953125 C 179.070312 211.828125 177.605469 213.761719 176.1875 215.753906 C 174.730469 217.824219 174.613281 221.03125 175.878906 222.824219 C 177.109375 224.5625 178.351562 226.292969 179.597656 228.023438" fill="#f7dc19"/></g><g id="change4_60"><path d="M 168.222656 244.515625 C 169.199219 245.992188 171.1875 245.433594 172.699219 243.335938 C 174.136719 241.296875 175.605469 239.292969 177.105469 237.324219 C 178.675781 235.300781 178.945312 232.289062 177.679688 230.523438 C 176.472656 228.835938 175.273438 227.140625 174.085938 225.4375 C 172.84375 223.660156 170.734375 223.988281 169.441406 226.265625 C 168.175781 228.449219 166.960938 230.699219 165.789062 233.003906 C 164.59375 235.402344 164.4375 238.652344 165.386719 240.152344 C 166.320312 241.613281 167.265625 243.066406 168.222656 244.515625" fill="#f7dc19"/></g><g id="change4_61"><path d="M 229.097656 168.804688 C 230.570312 170.394531 233.742188 171.023438 236.269531 170.296875 C 238.707031 169.605469 241.199219 168.984375 243.738281 168.414062 C 246.355469 167.808594 247.515625 166.386719 246.222656 165.148438 C 244.96875 163.941406 243.703125 162.746094 242.421875 161.558594 C 241.105469 160.347656 237.660156 159.453125 234.835938 159.675781 C 232.117188 159.902344 229.46875 160.210938 226.878906 160.605469 C 224.191406 160.996094 223.316406 162.6875 224.8125 164.261719 C 226.246094 165.769531 227.679688 167.28125 229.097656 168.804688" fill="#f7dc19"/></g><g id="change4_62"><path d="M 210.847656 175.824219 C 212.425781 177.671875 215.46875 178.234375 217.71875 177.167969 C 219.894531 176.148438 222.125 175.1875 224.398438 174.292969 C 226.75 173.351562 227.519531 171.34375 226.03125 169.730469 C 224.589844 168.15625 223.136719 166.597656 221.679688 165.035156 C 220.175781 163.4375 216.875 162.601562 214.421875 163.28125 C 212.054688 163.949219 209.746094 164.703125 207.515625 165.535156 C 205.195312 166.390625 204.683594 168.671875 206.269531 170.507812 C 207.800781 172.277344 209.324219 174.050781 210.847656 175.824219" fill="#f7dc19"/></g><g id="change4_63"><path d="M 194.90625 185.746094 C 196.480469 187.71875 199.300781 188.105469 201.285156 186.703125 C 203.199219 185.351562 205.160156 184.0625 207.175781 182.832031 C 209.257812 181.554688 209.730469 179.074219 208.148438 177.214844 C 206.621094 175.410156 205.089844 173.605469 203.558594 171.808594 C 201.96875 169.957031 198.902344 169.28125 196.816406 170.429688 C 194.796875 171.539062 192.847656 172.730469 190.957031 174 C 189.011719 175.3125 188.777344 178.078125 190.351562 180.054688 C 191.867188 181.945312 193.390625 183.847656 194.90625 185.746094" fill="#f7dc19"/></g><g id="change4_64"><path d="M 181.277344 198.578125 C 182.734375 200.539062 185.246094 200.640625 186.96875 198.898438 C 188.621094 197.214844 190.320312 195.59375 192.070312 194.03125 C 193.886719 192.410156 194.144531 189.574219 192.574219 187.597656 C 191.066406 185.691406 189.5625 183.78125 188.054688 181.878906 C 186.488281 179.902344 183.734375 179.503906 182.019531 181.105469 C 180.355469 182.660156 178.757812 184.296875 177.21875 186.011719 C 175.632812 187.78125 175.605469 190.925781 177.046875 192.886719 C 178.449219 194.785156 179.859375 196.6875 181.277344 198.578125" fill="#f7dc19"/></g><g id="change4_65"><path d="M 169.953125 214.316406 C 171.191406 216.128906 173.320312 215.832031 174.769531 213.753906 C 176.152344 211.738281 177.59375 209.78125 179.078125 207.894531 C 180.625 205.9375 180.761719 202.851562 179.316406 200.894531 C 177.929688 199.015625 176.546875 197.128906 175.164062 195.238281 C 173.734375 193.28125 171.398438 193.265625 170.039062 195.328125 C 168.726562 197.324219 167.480469 199.394531 166.289062 201.550781 C 165.074219 203.785156 165.148438 207.191406 166.367188 209.019531 C 167.554688 210.789062 168.753906 212.558594 169.953125 214.316406" fill="#f7dc19"/></g><g id="change4_66"><path d="M 160.945312 232.953125 C 161.855469 234.492188 163.503906 233.6875 164.6875 231.273438 C 165.808594 228.929688 166.980469 226.640625 168.199219 224.421875 C 169.480469 222.125 169.578125 218.894531 168.363281 217.09375 C 167.207031 215.367188 166.050781 213.640625 164.902344 211.894531 C 163.703125 210.085938 161.863281 210.558594 160.875 213.085938 C 159.90625 215.519531 159.011719 218.03125 158.179688 220.628906 C 157.328125 223.328125 157.421875 226.890625 158.300781 228.4375 C 159.175781 229.964844 160.054688 231.464844 160.945312 232.953125" fill="#f7dc19"/></g><g id="change4_67"><path d="M 217.753906 156.984375 C 219.273438 158.535156 222.605469 159.398438 225.308594 159.035156 C 227.914062 158.6875 230.589844 158.429688 233.332031 158.257812 C 236.171875 158.0625 237.460938 157.035156 236.105469 155.855469 C 234.785156 154.699219 233.453125 153.554688 232.113281 152.414062 C 230.734375 151.257812 227.050781 150.035156 224.03125 149.832031 C 221.136719 149.652344 218.3125 149.578125 215.574219 149.609375 C 212.734375 149.628906 211.796875 151.011719 213.332031 152.546875 C 214.8125 154.019531 216.28125 155.496094 217.753906 156.984375" fill="#f7dc19"/></g><g id="change4_68"><path d="M 198.796875 161.9375 C 200.394531 163.769531 203.488281 164.46875 205.8125 163.632812 C 208.058594 162.824219 210.367188 162.113281 212.746094 161.480469 C 215.210938 160.8125 216.054688 159.089844 214.519531 157.507812 C 213.035156 155.972656 211.546875 154.441406 210.042969 152.914062 C 208.496094 151.351562 205.0625 150.273438 202.519531 150.664062 C 200.066406 151.054688 197.699219 151.546875 195.414062 152.148438 C 193.046875 152.761719 192.546875 154.855469 194.144531 156.675781 C 195.703125 158.425781 197.25 160.179688 198.796875 161.9375" fill="#f7dc19"/></g><g id="change4_69"><path d="M 182.957031 170.8125 C 184.527344 172.785156 187.300781 173.21875 189.253906 171.910156 C 191.132812 170.648438 193.078125 169.476562 195.09375 168.386719 C 197.1875 167.253906 197.660156 164.929688 196.0625 163.089844 C 194.511719 161.300781 192.960938 159.515625 191.402344 157.730469 C 189.796875 155.894531 186.703125 155.074219 184.632812 156.0625 C 182.632812 157.019531 180.714844 158.078125 178.878906 159.246094 C 176.980469 160.445312 176.820312 163.152344 178.398438 165.117188 C 179.914062 167.019531 181.4375 168.914062 182.957031 170.8125" fill="#f7dc19"/></g><g id="change4_70"><path d="M 170.238281 183.617188 C 171.675781 185.59375 174.039062 185.648438 175.617188 183.878906 C 177.132812 182.152344 178.710938 180.519531 180.367188 178.976562 C 182.082031 177.367188 182.285156 174.566406 180.71875 172.59375 C 179.207031 170.679688 177.703125 168.773438 176.199219 166.863281 C 174.636719 164.894531 171.964844 164.4375 170.367188 166.015625 C 168.816406 167.539062 167.347656 169.164062 165.96875 170.902344 C 164.539062 172.695312 164.644531 175.894531 166.066406 177.875 C 167.453125 179.796875 168.847656 181.707031 170.238281 183.617188" fill="#f7dc19"/></g><g id="change4_71"><path d="M 160.644531 200.351562 C 161.839844 202.195312 163.703125 201.765625 164.910156 199.519531 C 166.066406 197.34375 167.277344 195.25 168.566406 193.242188 C 169.90625 191.164062 169.925781 187.996094 168.496094 186.023438 C 167.136719 184.121094 165.773438 182.21875 164.421875 180.3125 C 163.015625 178.339844 160.855469 178.355469 159.726562 180.523438 C 158.628906 182.617188 157.609375 184.8125 156.679688 187.109375 C 155.726562 189.503906 156.003906 193.089844 157.175781 194.949219 C 158.324219 196.757812 159.476562 198.554688 160.644531 200.351562" fill="#f7dc19"/></g><g id="change4_72"><path d="M 154.171875 221.003906 C 155.011719 222.59375 156.300781 221.566406 157.136719 218.84375 C 157.921875 216.214844 158.773438 213.660156 159.699219 211.199219 C 160.667969 208.652344 160.570312 205.214844 159.402344 203.382812 C 158.28125 201.613281 157.175781 199.851562 156.074219 198.070312 C 154.925781 196.230469 153.363281 196.828125 152.710938 199.597656 C 152.0625 202.257812 151.5 205.019531 151.019531 207.890625 C 150.539062 210.871094 150.898438 214.734375 151.71875 216.34375 C 152.519531 217.90625 153.339844 219.460938 154.171875 221.003906" fill="#f7dc19"/></g><g id="change4_73"><path d="M 206.058594 145.441406 C 207.628906 146.960938 211.09375 148.070312 213.9375 148.078125 C 219.542969 148.226562 219.542969 148.226562 222.46875 148.464844 C 225.488281 148.691406 226.910156 148.082031 225.488281 146.953125 C 224.105469 145.851562 222.710938 144.753906 221.304688 143.664062 C 219.859375 142.566406 215.960938 140.996094 212.777344 140.355469 C 209.703125 139.75 206.742188 139.273438 203.871094 138.925781 C 200.902344 138.546875 199.914062 139.609375 201.5 141.113281 C 203.027344 142.550781 204.546875 143.992188 206.058594 145.441406" fill="#f7dc19"/></g><g id="change4_74"><path d="M 186.558594 148.1875 C 188.1875 150.007812 191.3125 150.863281 193.6875 150.269531 C 195.976562 149.699219 198.347656 149.246094 200.8125 148.894531 C 203.359375 148.527344 204.261719 147.097656 202.683594 145.550781 C 201.15625 144.046875 199.625 142.546875 198.078125 141.058594 C 196.488281 139.527344 192.945312 138.203125 190.339844 138.28125 C 187.816406 138.371094 185.402344 138.59375 183.09375 138.941406 C 180.695312 139.289062 180.214844 141.1875 181.84375 142.988281 C 183.421875 144.71875 184.988281 146.453125 186.558594 148.1875" fill="#f7dc19"/></g><g id="change4_75"><path d="M 170.988281 155.890625 C 172.566406 157.859375 175.269531 158.355469 177.160156 157.15625 C 178.988281 156.007812 180.902344 154.96875 182.898438 154.035156 C 184.964844 153.0625 185.4375 150.914062 183.8125 149.089844 C 182.246094 147.3125 180.671875 145.546875 179.097656 143.777344 C 177.46875 141.964844 174.363281 140.984375 172.332031 141.789062 C 170.367188 142.574219 168.507812 143.488281 166.746094 144.53125 C 164.925781 145.605469 164.855469 148.230469 166.421875 150.199219 C 167.949219 152.097656 169.472656 153.988281 170.988281 155.890625" fill="#f7dc19"/></g><g id="change4_76"><path d="M 159.355469 168.527344 C 160.773438 170.523438 162.96875 170.550781 164.386719 168.757812 C 165.742188 167.019531 167.1875 165.390625 168.71875 163.871094 C 170.3125 162.300781 170.4375 159.554688 168.871094 157.574219 C 167.367188 155.660156 165.863281 153.753906 164.355469 151.84375 C 162.796875 149.867188 160.222656 149.347656 158.769531 150.882812 C 157.355469 152.355469 156.039062 153.964844 154.839844 155.703125 C 153.589844 157.5 153.851562 160.746094 155.246094 162.742188 C 156.617188 164.675781 157.984375 166.605469 159.355469 168.527344" fill="#f7dc19"/></g><g id="change4_77"><path d="M 151.65625 186.117188 C 152.808594 188.007812 154.402344 187.449219 155.34375 185.050781 C 156.238281 182.730469 157.21875 180.519531 158.285156 178.414062 C 159.398438 176.238281 159.269531 172.996094 157.867188 171.003906 C 156.523438 169.085938 155.1875 167.164062 153.859375 165.238281 C 152.472656 163.242188 150.515625 163.289062 149.632812 165.546875 C 148.773438 167.71875 148.015625 170.019531 147.363281 172.453125 C 146.695312 174.980469 147.1875 178.730469 148.316406 180.621094 C 149.425781 182.464844 150.539062 184.296875 151.65625 186.117188" fill="#f7dc19"/></g><g id="change4_78"><path d="M 147.890625 208.652344 C 148.667969 210.296875 149.578125 209.050781 150.039062 206.054688 C 150.472656 203.148438 150.980469 200.351562 151.585938 197.660156 C 152.222656 194.878906 151.917969 191.257812 150.796875 189.382812 C 149.722656 187.585938 148.660156 185.777344 147.605469 183.96875 C 146.496094 182.089844 145.234375 182.808594 144.9375 185.785156 C 144.628906 188.652344 144.421875 191.65625 144.320312 194.78125 C 144.230469 198.03125 144.882812 202.1875 145.628906 203.839844 C 146.371094 205.453125 147.125 207.0625 147.890625 208.652344" fill="#f7dc19"/></g><g id="change4_79"><path d="M 194.003906 134.1875 C 195.621094 135.667969 199.210938 137.039062 202.183594 137.4375 C 205.066406 137.84375 208.050781 138.371094 211.144531 139.039062 C 214.335938 139.707031 215.863281 139.523438 214.371094 138.453125 C 212.929688 137.398438 211.464844 136.351562 210 135.3125 C 208.484375 134.265625 204.390625 132.34375 201.058594 131.238281 C 197.84375 130.191406 194.753906 129.296875 191.777344 128.558594 C 188.695312 127.769531 187.679688 128.496094 189.3125 129.964844 C 190.882812 131.363281 192.445312 132.769531 194.003906 134.1875" fill="#f7dc19"/></g><g id="change4_80"><path d="M 174.136719 134.597656 C 175.785156 136.390625 178.933594 137.414062 181.328125 137.082031 C 183.640625 136.769531 186.0625 136.59375 188.589844 136.546875 C 191.195312 136.476562 192.140625 135.359375 190.519531 133.851562 C 188.949219 132.382812 187.371094 130.910156 185.789062 129.457031 C 184.15625 127.96875 180.519531 126.375 177.867188 126.128906 C 175.304688 125.902344 172.863281 125.824219 170.546875 125.90625 C 168.144531 125.980469 167.695312 127.667969 169.351562 129.445312 C 170.949219 131.160156 172.546875 132.878906 174.136719 134.597656" fill="#f7dc19"/></g><g id="change4_81"><path d="M 159.019531 140.972656 C 160.589844 142.945312 163.207031 143.515625 165.023438 142.453125 C 166.769531 141.429688 168.621094 140.53125 170.585938 139.777344 C 172.609375 138.980469 173.054688 137.023438 171.410156 135.214844 C 169.8125 133.453125 168.230469 131.699219 166.636719 129.953125 C 164.980469 128.152344 161.890625 127.007812 159.917969 127.613281 C 158.007812 128.207031 156.226562 128.960938 154.5625 129.863281 C 152.839844 130.785156 152.871094 133.324219 154.441406 135.289062 C 155.96875 137.183594 157.488281 139.074219 159.019531 140.972656" fill="#f7dc19"/></g><g id="change4_82"><path d="M 148.640625 153.320312 C 150.027344 155.328125 152.035156 155.339844 153.269531 153.542969 C 154.445312 151.808594 155.730469 150.203125 157.128906 148.730469 C 158.570312 147.199219 158.605469 144.523438 157.035156 142.539062 C 155.539062 140.632812 154.035156 138.714844 152.527344 136.808594 C 150.96875 134.835938 148.503906 134.230469 147.21875 135.699219 C 145.960938 137.113281 144.828125 138.6875 143.820312 140.410156 C 142.78125 142.195312 143.207031 145.46875 144.585938 147.484375 C 145.929688 149.433594 147.285156 151.375 148.640625 153.320312" fill="#f7dc19"/></g><g id="change4_83"><path d="M 143 171.628906 C 144.105469 173.554688 145.410156 172.886719 146.0625 170.355469 C 146.679688 167.910156 147.394531 165.59375 148.222656 163.40625 C 149.085938 161.144531 148.800781 157.851562 147.421875 155.839844 C 146.105469 153.898438 144.796875 151.964844 143.480469 150.019531 C 142.117188 148.003906 140.371094 148.058594 139.765625 150.386719 C 139.164062 152.628906 138.691406 155.019531 138.324219 157.5625 C 137.972656 160.203125 138.707031 164.105469 139.789062 166.03125 C 140.851562 167.902344 141.921875 169.769531 143 171.628906" fill="#f7dc19"/></g><g id="change4_84"><path d="M 142.109375 195.90625 C 142.820312 197.601562 143.339844 196.15625 143.410156 192.894531 C 143.453125 189.730469 143.609375 186.707031 143.863281 183.808594 C 144.152344 180.8125 143.621094 177.015625 142.542969 175.105469 C 141.515625 173.269531 140.496094 171.429688 139.488281 169.582031 C 138.425781 167.660156 137.488281 168.484375 137.558594 171.667969 C 137.613281 174.730469 137.785156 177.945312 138.082031 181.308594 C 138.402344 184.804688 139.359375 189.230469 140.039062 190.941406 C 140.71875 192.605469 141.40625 194.265625 142.109375 195.90625" fill="#f7dc19"/></g><g id="change4_85"><path d="M 181.597656 123.210938 C 183.261719 124.65625 186.945312 126.300781 190.035156 127.113281 C 193.019531 127.910156 196.128906 128.867188 199.359375 129.976562 C 202.699219 131.101562 204.316406 131.367188 202.757812 130.347656 C 201.246094 129.34375 199.726562 128.347656 198.195312 127.363281 C 196.617188 126.363281 192.339844 124.066406 188.882812 122.484375 C 185.542969 120.980469 182.34375 119.652344 179.289062 118.503906 C 176.117188 117.285156 175.09375 117.671875 176.769531 119.101562 C 178.386719 120.460938 179.996094 121.832031 181.597656 123.210938" fill="#f7dc19"/></g><g id="change4_86"><path d="M 161.53125 121.148438 C 163.203125 122.925781 166.347656 124.132812 168.753906 124.078125 C 171.070312 124.035156 173.511719 124.152344 176.074219 124.425781 C 178.730469 124.6875 179.691406 123.890625 178.019531 122.410156 C 176.410156 120.976562 174.796875 119.546875 173.171875 118.117188 C 171.492188 116.664062 167.773438 114.789062 165.101562 114.199219 C 162.519531 113.640625 160.078125 113.261719 157.777344 113.0625 C 155.390625 112.828125 155.003906 114.292969 156.675781 116.054688 C 158.300781 117.746094 159.917969 119.445312 161.53125 121.148438" fill="#f7dc19"/></g><g id="change4_87"><path d="M 147.023438 126.070312 C 148.601562 128.039062 151.113281 128.703125 152.824219 127.785156 C 154.480469 126.902344 156.253906 126.183594 158.144531 125.609375 C 160.113281 125.015625 160.515625 123.261719 158.84375 121.46875 C 157.234375 119.722656 155.628906 117.988281 154.011719 116.253906 C 152.339844 114.472656 149.273438 113.128906 147.382812 113.527344 C 145.554688 113.917969 143.863281 114.484375 142.316406 115.230469 C 140.722656 115.992188 140.878906 118.425781 142.445312 120.390625 C 143.976562 122.285156 145.496094 124.175781 147.023438 126.070312" fill="#f7dc19"/></g><g id="change4_88"><path d="M 138.070312 137.980469 C 139.441406 140.015625 141.242188 140.019531 142.265625 138.234375 C 143.253906 136.519531 144.355469 134.949219 145.589844 133.550781 C 146.867188 132.078125 146.789062 129.484375 145.226562 127.503906 C 143.722656 125.585938 142.21875 123.679688 140.722656 121.765625 C 139.15625 119.789062 136.824219 119.09375 135.722656 120.472656 C 134.644531 121.8125 133.714844 123.332031 132.925781 125.027344 C 132.105469 126.777344 132.726562 130.066406 134.085938 132.101562 C 135.40625 134.0625 136.734375 136.023438 138.070312 137.980469" fill="#f7dc19"/></g><g id="change4_89"><path d="M 134.675781 156.878906 C 135.734375 158.839844 136.730469 158.074219 137.070312 155.4375 C 137.386719 152.875 137.820312 150.472656 138.386719 148.226562 C 138.980469 145.894531 138.511719 142.558594 137.15625 140.527344 C 135.863281 138.570312 134.574219 136.613281 133.289062 134.648438 C 131.949219 132.617188 130.4375 132.675781 130.121094 135.050781 C 129.804688 137.335938 129.621094 139.800781 129.582031 142.441406 C 129.558594 145.183594 130.542969 149.226562 131.585938 151.183594 C 132.605469 153.09375 133.636719 154.984375 134.675781 156.878906" fill="#f7dc19"/></g><g id="change4_90"><path d="M 136.832031 182.769531 C 137.480469 184.515625 137.578125 182.882812 137.234375 179.371094 C 136.882812 175.972656 136.648438 172.730469 136.542969 169.644531 C 136.453125 166.453125 135.683594 162.484375 134.644531 160.539062 C 133.660156 158.667969 132.691406 156.796875 131.730469 154.910156 C 130.714844 152.957031 130.109375 153.871094 130.578125 157.234375 C 131.011719 160.472656 131.585938 163.886719 132.304688 167.476562 C 133.058594 171.199219 134.335938 175.886719 134.953125 177.648438 C 135.566406 179.363281 136.1875 181.066406 136.832031 182.769531" fill="#f7dc19"/></g><g id="change2_2"><path d="M 198.890625 84.953125 C 198.890625 84.953125 187.230469 94.242188 231.546875 164.554688 C 284.945312 249.269531 226.5625 289.371094 249.832031 326.6875 C 273.101562 363.992188 304.355469 363.085938 324.53125 344.980469 C 330.578125 339.554688 353.492188 311.976562 333.3125 263.914062 C 313.015625 215.570312 297.164062 205.148438 274.503906 179.171875 C 231.933594 130.390625 226.765625 129.742188 198.890625 84.953125" fill="#6ec72d"/></g><g id="change5_1"><path d="M 83.738281 177.996094 C 83.738281 177.996094 95.417969 168.734375 153.933594 227.753906 C 224.441406 298.863281 263.101562 233.117188 309.074219 276.476562 C 341.0625 306.640625 330.960938 343.421875 308.765625 359.003906 C 302.121094 363.671875 270.089844 379.785156 227.8125 349.292969 C 185.28125 318.621094 185.453125 298.71875 165.253906 270.78125 C 127.316406 218.316406 121.097656 215.242188 83.738281 177.996094" fill="#80cc28"/></g></g></svg>